<?xml version="1.0" encoding="UTF-8" standalone="no"?>
<!DOCTYPE svg PUBLIC "-//W3C//DTD SVG 1.1//EN" "http://www.w3.org/Graphics/SVG/1.1/DTD/svg11.dtd">
<svg width="100%" height="100%" viewBox="0 0 1629 1331" version="1.1" xmlns="http://www.w3.org/2000/svg" xmlns:xlink="http://www.w3.org/1999/xlink" xml:space="preserve" xmlns:serif="http://www.serif.com/" style="fill-rule:evenodd;clip-rule:evenodd;stroke-linejoin:round;stroke-miterlimit:2;">
    <g id="Artboard1" transform="matrix(0.229049,0,0,0.305485,832.137,0)">
        <rect x="-3633" y="0" width="7112" height="4357" style="fill:rgb(13,13,13);"/>
        <g transform="matrix(8.02358,0,0,5.93625,-7320.05,511.168)">
            <text x="518.693px" y="233.464px" style="font-family:'PermanentMarker-Regular', 'Permanent Marker';font-size:76.18px;fill:rgb(255,254,253);">FRONTEND</text>
            <text x="911.643px" y="233.464px" style="font-family:'PermanentMarker-Regular', 'Permanent Marker';font-size:76.18px;fill:none;stroke:white;stroke-width:1.1px;">_</text>
            <text x="965.653px" y="233.464px" style="font-family:'PermanentMarker-Regular', 'Permanent Marker';font-size:76.18px;fill:none;stroke:rgb(255,69,0);stroke-width:1.1px;">O<tspan x="1020.85px 1069.58px " y="233.464px 233.464px ">PS</tspan></text>
            <text x="518.693px" y="311.95px" style="font-family:'PermanentMarker-Regular', 'Permanent Marker';font-size:76.18px;fill:rgb(255,254,253);">D<tspan x="562.809px 610.57px " y="311.95px 311.95px ">EV</tspan>ELO<tspan x="806.226px 854.955px 901.972px " y="311.95px 311.95px 311.95px ">PER</tspan></text>
        </g>
        <g transform="matrix(6.66626,0,0,5.36485,-6591.14,1783.91)">
            <text x="518.693px" y="233.464px" style="font-family:'PermanentMarker-Regular', 'Permanent Marker';font-size:80.623px;fill:none;stroke:rgb(255,69,0);stroke-width:1.26px;">Y<tspan x="558.189px 609.496px 658.835px 704.63px 736.647px 795.433px 839.89px 884.347px 916.364px 959.955px 1008.98px 1056.66px 1080.26px 1121.09px 1153.11px 1221.03px 1270.05px 1298.05px 1338.89px 1370.9px " y="233.464px 233.464px 233.464px 233.464px 233.464px 233.464px 233.464px 233.464px 233.464px 233.464px 233.464px 233.464px 233.464px 233.464px 233.464px 233.464px 233.464px 233.464px 233.464px 233.464px ">our App can&apos;t wait ?</tspan></text>
        </g>
        <g transform="matrix(6.80517,0,0,5.15646,-3831.45,2522.78)">
            <text x="600px" y="301.5px" style="font-family:'Raleway-Medium', 'Raleway';font-weight:500;font-size:43.803px;fill:white;stroke:white;stroke-width:1.28px;">ZAKARIA</text>
            <text x="785.332px" y="301.5px" style="font-family:'Raleway-Medium', 'Raleway';font-weight:500;font-size:43.803px;fill:none;stroke:white;stroke-width:0.64px;">BEJI</text>
            <text x="873.858px" y="301.5px" style="font-family:'Raleway-Medium', 'Raleway';font-weight:500;font-size:43.803px;fill:rgb(255,69,0);stroke:rgb(255,69,0);stroke-width:0.64px;">.</text>
            <text x="882.093px" y="301.5px" style="font-family:'Raleway-Medium', 'Raleway';font-weight:500;font-size:43.803px;fill:white;stroke:white;stroke-width:1.28px;">C<tspan x="911.617px " y="301.5px ">O</tspan>M</text>
        </g>
        <g id="Hail" transform="matrix(10.1746,-3.78985e-17,1.01437e-16,7.68816,-6198.71,-1271.48)">
            <path d="M327.5,223.362L327.5,235.002C327.5,235.554 327.948,236 328.5,236C329.056,236 329.5,235.553 329.5,235.002L329.5,228.5L330,228.5L330,235.002C330,235.554 330.448,236 331,236C331.556,236 332,235.553 332,235.002L332,223.495L332.493,223.495C332.817,223.495 332.988,223.932 333.013,224L333,224L333,227.757C333,228.162 333.336,228.5 333.75,228.5C334.167,228.5 334.5,228.167 334.5,227.757L334.5,224L334.49,224C334.474,223.812 334.365,222.857 333.766,221.935C333.37,221.325 332.579,221.102 332,221.021L332,221L331.824,221C331.518,220.969 331.305,220.978 331.305,220.978L331.305,221L327.55,221L326.024,219.834C325.819,219.678 325.61,219.313 325.58,219.037L325.206,215.586C325.183,215.372 324.986,215.191 324.767,215.198L324.638,215.203C324.421,215.21 324.249,215.393 324.257,215.611L324.414,220.205C324.423,220.49 324.598,220.857 324.805,221.035L327.5,223.362ZM329.6,220.5C330.705,220.5 331.6,219.605 331.6,218.5C331.6,217.395 330.705,216.5 329.6,216.5C328.495,216.5 327.6,217.395 327.6,218.5C327.6,219.605 328.495,220.5 329.6,220.5Z" style="fill:rgb(255,69,0);stroke:rgb(255,69,0);stroke-width:0.2px;"/>
        </g>
        <g transform="matrix(4.36587,0,0,3.27348,-3595.97,-541.58)">
            <text x="111px" y="331.37px" style="font-family:'Raleway-Medium', 'Raleway';font-weight:500;font-size:69px;fill:white;">H !</text>
            <text x="111px" y="378.45px" style="font-family:'Raleway-Medium', 'Raleway';font-weight:500;font-size:69px;fill:white;">m<tspan x="174.066px 209.808px " y="378.45px 378.45px ">y </tspan>name is Zak.</text>
        </g>
        <g transform="matrix(4.36587,0,0,3.27348,-489.575,-387.466)">
            <text x="111px" y="331.37px" style="font-family:'Raleway-Medium', 'Raleway';font-weight:500;font-size:69px;fill:rgb(255,69,0);">I&apos;M <tspan x="219.054px 263.628px " y="331.37px 331.37px ">A </tspan>INDEPENDENT</text>
        </g>
        <g transform="matrix(4.31728,-1.0989e-16,1.95415e-16,-5.5125,-3303.5,11022.3)">
            <rect x="1432" y="1250" width="50" height="3" style="fill:rgb(255,69,0);"/>
        </g>
    </g>
</svg>
