<?xml version="1.0" encoding="UTF-8" standalone="no"?>
<!DOCTYPE svg PUBLIC "-//W3C//DTD SVG 1.1//EN" "http://www.w3.org/Graphics/SVG/1.1/DTD/svg11.dtd">
<svg width="100%" height="100%" viewBox="0 0 1629 1331" version="1.1" xmlns="http://www.w3.org/2000/svg" xmlns:xlink="http://www.w3.org/1999/xlink" xml:space="preserve" xmlns:serif="http://www.serif.com/" style="fill-rule:evenodd;clip-rule:evenodd;stroke-linejoin:round;stroke-miterlimit:2;">
    <g id="Artboard1" transform="matrix(0.229049,0,0,0.305485,832.137,0)">
        <rect x="-3633" y="0" width="7112" height="4357" style="fill:rgb(13,13,13);"/>
        <g transform="matrix(8.02358,0,0,5.93625,-7322.08,534.654)">
            <text x="518.693px" y="233.464px" style="font-family:'SegoeUI-Bold', 'Segoe UI', sans-serif;font-weight:700;font-size:76.18px;fill:rgb(255,254,253);">FR<tspan x="607.296px 665.063px " y="233.464px 233.464px ">ON</tspan>TEND</text>
            <text x="926.782px" y="233.464px" style="font-family:'SegoeUI-Bold', 'Segoe UI', sans-serif;font-weight:700;font-size:76.18px;fill:none;stroke:white;stroke-width:1.1px;">_</text>
            <text x="958.4px" y="233.464px" style="font-family:'SegoeUI-Bold', 'Segoe UI', sans-serif;font-weight:700;font-size:76.18px;fill:none;stroke:rgb(255,69,0);stroke-width:1.1px;">OPS</text>
            <text x="518.693px" y="309.644px" style="font-family:'SegoeUI-Bold', 'Segoe UI', sans-serif;font-weight:700;font-size:76.18px;fill:rgb(255,254,253);">DE<tspan x="615.777px 666.588px 707.133px 744.182px 801.949px " y="309.644px 309.644px 309.644px 309.644px 309.644px ">VELOP</tspan>ER</text>
        </g>
        <g transform="matrix(6.75261,0,0,5.15646,-6633.1,-667.428)">
            <text x="518.693px" y="233.464px" style="font-family:'SegoeUI-Bold', 'Segoe UI', sans-serif;font-weight:700;font-size:43.803px;fill:white;">H<tspan x="553.434px 566.701px " y="233.464px 233.464px "> !</tspan></text>
            <text x="518.693px" y="277.267px" style="font-family:'SegoeUI-Bold', 'Segoe UI', sans-serif;font-weight:700;font-size:43.803px;fill:white;">m<tspan x="559.737px 584.227px 597.231px 624.651px 649.141px 690.185px 714.804px 727.808px 741.176px 761.367px 774.371px 801.876px 826.366px 853.53px " y="277.267px 277.267px 277.267px 277.267px 277.267px 277.267px 277.267px 277.267px 277.267px 277.267px 277.267px 277.267px 277.267px 277.267px ">y name is Zak.</tspan></text>
        </g>
        <g transform="matrix(6.66626,0,0,5.36485,-6591.14,2005.12)">
            <text x="518.693px" y="233.464px" style="font-family:'PermanentMarker-Regular', 'Permanent Marker';font-size:80.623px;fill:none;stroke:rgb(255,69,0);stroke-width:1.26px;">Y<tspan x="558.189px 609.496px 658.835px 704.63px 736.647px 795.433px 839.89px 884.347px 916.364px 959.955px 1008.98px 1056.66px 1080.26px 1121.09px 1153.11px 1221.03px 1270.05px 1298.05px 1338.89px 1370.9px " y="233.464px 233.464px 233.464px 233.464px 233.464px 233.464px 233.464px 233.464px 233.464px 233.464px 233.464px 233.464px 233.464px 233.464px 233.464px 233.464px 233.464px 233.464px 233.464px 233.464px ">our App can&apos;t wait ?</tspan></text>
        </g>
        <g transform="matrix(6.80517,0,0,5.15646,-3523.9,-792.383)">
            <text x="600px" y="301.5px" style="font-family:'SegoeUI-Bold', 'Segoe UI', sans-serif;font-weight:700;font-size:43.803px;fill:rgb(255,69,0);">I&apos;M A VERSA<tspan x="857.024px 882.69px " y="301.5px 301.5px ">TI</tspan>LE</text>
        </g>
        <g transform="matrix(6.80517,0,0,5.15646,-3831.45,2437.43)">
            <text x="600px" y="301.5px" style="font-family:'SegoeUI-Bold', 'Segoe UI', sans-serif;font-weight:700;font-size:43.803px;fill:white;stroke:white;stroke-width:1.28px;">ZAKARIA</text>
            <text x="789.886px" y="301.5px" style="font-family:'SegoeUI-Bold', 'Segoe UI', sans-serif;font-weight:700;font-size:43.803px;fill:none;stroke:white;stroke-width:1.28px;">BE<tspan x="842.33px 861.836px " y="301.5px 301.5px ">JI</tspan></text>
            <text x="875.717px" y="301.5px" style="font-family:'SegoeUI-Bold', 'Segoe UI', sans-serif;font-weight:700;font-size:43.803px;fill:rgb(255,69,0);">.</text>
            <text x="887.587px" y="301.5px" style="font-family:'SegoeUI-Bold', 'Segoe UI', sans-serif;font-weight:700;font-size:43.803px;fill:white;stroke:white;stroke-width:1.28px;">C<tspan x="914.387px 947.603px " y="301.5px 301.5px ">OM</tspan></text>
        </g>
        <g id="Hail" transform="matrix(10.1746,-3.78985e-17,1.01437e-16,7.68816,-6196.6,-1276.21)">
            <path d="M327.5,223.362L327.5,235.002C327.5,235.554 327.948,236 328.5,236C329.056,236 329.5,235.553 329.5,235.002L329.5,228.5L330,228.5L330,235.002C330,235.554 330.448,236 331,236C331.556,236 332,235.553 332,235.002L332,223.495L332.493,223.495C332.817,223.495 332.988,223.932 333.013,224L333,224L333,227.757C333,228.162 333.336,228.5 333.75,228.5C334.167,228.5 334.5,228.167 334.5,227.757L334.5,224L334.49,224C334.474,223.812 334.365,222.857 333.766,221.935C333.37,221.325 332.579,221.102 332,221.021L332,221L331.824,221C331.518,220.969 331.305,220.978 331.305,220.978L331.305,221L327.55,221L326.024,219.834C325.819,219.678 325.61,219.313 325.58,219.037L325.206,215.586C325.183,215.372 324.986,215.191 324.767,215.198L324.638,215.203C324.421,215.21 324.249,215.393 324.257,215.611L324.414,220.205C324.423,220.49 324.598,220.857 324.805,221.035L327.5,223.362ZM329.6,220.5C330.705,220.5 331.6,219.605 331.6,218.5C331.6,217.395 330.705,216.5 329.6,216.5C328.495,216.5 327.6,217.395 327.6,218.5C327.6,219.605 328.495,220.5 329.6,220.5Z" style="fill:rgb(255,69,0);stroke:rgb(255,69,0);stroke-width:0.2px;"/>
        </g>
    </g>
</svg>
